<svg xmlns="http://www.w3.org/2000/svg" xmlns:xlink="http://www.w3.org/1999/xlink" width="2560" height="694.4"><defs><linearGradient id="a" x1=".5" y1="1.122" x2=".5" y2="-1.024" gradientUnits="objectBoundingBox"><stop offset="0" stop-color="#21252e"/><stop offset="1" stop-color="#2f3542"/></linearGradient><linearGradient id="c" x1=".732" y1=".787" x2=".256" y2=".346" xlink:href="#a"/><linearGradient id="d" x1=".093" y1=".203" x2=".977" y2="1.024" xlink:href="#a"/><linearGradient id="e" x1=".805" y1=".838" x2=".286" y2=".263" xlink:href="#a"/><linearGradient id="f" x1=".805" y1=".838" x2=".286" y2=".263" xlink:href="#a"/><linearGradient id="g" x1=".809" y1=".655" x2=".302" y2=".218" gradientUnits="objectBoundingBox"><stop offset="0" stop-color="#fff"/><stop offset="1" stop-color="#fff" stop-opacity="0"/></linearGradient><linearGradient id="h" x1=".078" y1=".484" x2="1.134" y2=".514" xlink:href="#a"/><linearGradient id="i" x1=".876" y1=".862" x2="-.1" y2=".067" xlink:href="#a"/><linearGradient id="j" x1=".167" y1=".961" x2=".416" y2=".645" xlink:href="#a"/><linearGradient id="k" x1=".831" y1=".645" x2=".178" y2=".258" gradientUnits="objectBoundingBox"><stop offset="0" stop-color="#fff" stop-opacity="0"/><stop offset="1" stop-color="#fff"/></linearGradient><clipPath id="b"><path fill="none" d="M0 0h2560v694.4H0z"/></clipPath></defs><path transform="translate(0 1.067)" fill="url(#a)" d="M0 0h2560v693.333H0z"/><g clip-path="url(#b)"><path d="M-1093 1564.527l487.467 844.267 2045.76-1181.12L465.293 664.9z" transform="translate(-72.867 45.393)" fill="url(#c)"/><path d="M-582.333-957.5L-1069.8-113.233l1534.4 885.76 974.827-562.773z" transform="translate(-71.32 -62.767)" fill="url(#d)"/><path d="M1343.527 1262.453l974.826-562.773-974.826-562.88L368.7 699.68z" transform="translate(24.58 10.186)" fill="url(#e)"/><path d="M2256.727 664.9L1281.9 1227.673l974.187 562.56 974.827-562.88z" transform="translate(85.46 45.393)" fill="url(#f)"/><path d="M2195.2 1755.08l1214.614 701.227 487.466-844.267-727.253-419.84z" transform="translate(146.346 80.546)" fill="url(#g)"/><path d="M3873.193-190.333L3385.727-1034.6 2196.5-347.987l974.934 562.88z" transform="translate(146.433 -67.907)" fill="url(#h)"/><path d="M-665.54-2060.9l-487.36 844.267L1444.967 283.313l974.827-562.88z" transform="translate(-76.86 -136.327)" fill="url(#i)"/><path d="M3993.62 787.04l-152-263.253L3171.434 136.8 2196.5 699.573l974.293 562.56z" transform="translate(146.433 10.186)" fill="url(#j)"/><path d="M4110.54 690l-329.813-190.4 152 263.253-822.827 475.094 513.173 296.32z" transform="translate(207.326 34.373)" fill="url(#k)"/></g></svg>