<svg xmlns="http://www.w3.org/2000/svg" width="110.314" height="18.387" viewBox="0 0 110.314 18.387"><defs><style>.a{fill:#17479e;}</style></defs><path class="a" d="M92.122,11.129H79.155c0,1.355.968,2.419,2.806,2.419a3.871,3.871,0,0,0,2.9-1.064h6.58a11.031,11.031,0,0,1-9.773,5.9c-5.516,0-9.1-3.677-8.128-9.193A10.935,10.935,0,0,1,84.478,0c5.129,0,8.128,3.387,8.128,7.741A13.742,13.742,0,0,1,92.122,11.129ZM84.091,4.646a4.354,4.354,0,0,0-4.064,2.516H86.8A2.443,2.443,0,0,0,84.091,4.646ZM106.153.1a4.064,4.064,0,0,1,4.161,3.967,4.161,4.161,0,0,1-8.322,0A4.064,4.064,0,0,1,106.153.1ZM66.866,0c4.161,0,6.483,2.806,5.612,7.161L70.543,18H64.156L66,8.033c.29-1.548-.484-2.806-2.032-2.806a3.29,3.29,0,0,0-3.29,2.806L58.931,18H52.544L55.738.485h5.9l-.677,2.322A8.128,8.128,0,0,1,66.866,0ZM1.064.485H17.805L16.837,6.1H11.709L9.483,18H3.1L5.322,6.1H0Zm18.192,0h6.387L23.9,10.161c-.29,1.645.484,2.709,2.032,2.709a3.1,3.1,0,0,0,3.1-2.709L30.869.485h6.387l-1.742,9.29c-1.064,5.9-5.032,8.612-10.451,8.612s-8.612-2.9-7.548-8.612ZM35.707,18,38.9.485h6.387L42,18ZM49.545.1a4.064,4.064,0,0,1,4.161,3.967,4.161,4.161,0,0,1-8.322,0A4.064,4.064,0,0,1,49.545.1ZM92.219,18,95.509.485H101.9L98.7,18Z" transform="translate(0 0)"/></svg>