<svg xmlns="http://www.w3.org/2000/svg" viewBox="0 0 99.68 14.22"><title>viacom</title><g id="Layer_2" data-name="Layer 2"><g id="Layer_1-2" data-name="Layer 1"><g id="Viacom"><g id="Mask"><path d="M18.68,0h0V12.38c0,.95.62,1.65,1.92,1.65h2.08V0ZM89,10h0S86.41,3.24,85.92,2C85.63,1.09,85.17,0,83.09,0H77.68V14h2.14c1.24,0,1.86-1.66,1.86-1.66V3h.06l4.47,11H90.4L94.87,3h.81v9.39c0,.94.57,1.61,2,1.61h2V0H95.2c-1.6,0-2.57.43-3,1.71L89.06,10ZM8.67,10h0S5.23,1.67,5,1.2C4.75.55,4.4,0,3.07,0H0L6.21,14h4.52L17.16,0H14.41a1.69,1.69,0,0,0-1.84,1.12L8.75,10ZM53.29,3h2.06c1.48,0,2.33-.49,2.33-1.73V0H51.76c-4.94,0-7.3,2.7-7.3,7,0,5.37,3.61,7,7.3,7h5.92V12.75c0-1.22-.91-1.72-2.22-1.72H53.32c-2.31,0-4.48-.77-4.48-4C48.81,4.23,50.45,3,53.29,3ZM37.68,8.54h0C37.68,10,37,11,34.94,11H32.82c-1.5,0-2.37-.37-2.37-1.48S31.27,8,32.82,8h4.86ZM35.61,0H26.68V1.14A1.74,1.74,0,0,0,28.6,3h5.16c2.19,0,2.92.7,2.92,2.36V6H31.4C27.44,6,26,7.72,26,10c0,2.79,2,4,5.39,4h4.32c4.91,0,6-2.28,6-5.27V5.29C41.68,2,40.38,0,35.61,0ZM66.79,11.3h0A3.89,3.89,0,0,0,71,7.12,3.85,3.85,0,0,0,66.79,3a3.87,3.87,0,0,0-4.2,4.17A3.92,3.92,0,0,0,66.79,11.3Zm0-11.3h0c4.91,0,8.42,2.47,8.42,7.1,0,4.42-3.24,7.12-8.42,7.12s-8.43-2.6-8.43-7.12S61.7,0,66.79,0Z"/></g></g></g></g></svg>