<svg xmlns="http://www.w3.org/2000/svg" viewBox="0 0 83.57 26"><title>vice</title><g id="Layer_2" data-name="Layer 2"><g id="Layer_1-2" data-name="Layer 1"><g id="Vice"><g id="Mask"><path d="M83.56,3.86c.08.36-.31.69-.51.95-1.76,2.17-3.7,4.72-6,6.37a4.73,4.73,0,0,1-.23,2.63,9.58,9.58,0,0,1,1.64,2.5,9,9,0,0,1-3.5,5.93c-1.8,1.29-4.22,1.8-7,2.42-5.34,1.21-14.11,2.4-18.07-.73-4.27,2.48-12.94,2.81-16.94-.15C30.09,27.33,18.85,27,20.53,20a40.27,40.27,0,0,1-8.11,4.9C9,26.28,2.56,26.12,3.21,21.36A3.57,3.57,0,0,1,3.81,20a33.27,33.27,0,0,1-2.24-4.39A15.07,15.07,0,0,1,0,10.53C-.21,6.28,3.16,3.58,6.47,2.32c1.69-.65,3.09-1.58,4.76-2,2.52-.71,4.66.65,4.82,2.92C19,2.34,22.53,1.39,26.38,2c3.07-2.35,9.07-.9,13,.21A13.63,13.63,0,0,0,42.14,3,8.47,8.47,0,0,0,44.3,2C47.06.8,50.68-.49,54.62.18a22.58,22.58,0,0,0,2.22.59A12.35,12.35,0,0,0,58.63.62C67.9.2,75.59,2.63,83.56,3.86ZM57.69,3.57c-.95.11-1.61,1.12-2.24,1.47,0,0,.08,0,.07-.08a8.22,8.22,0,0,0,.36-1.48c-4.94-1.71-9.76.81-13.31,2.72a30.66,30.66,0,0,0-7.12,5.13,35.83,35.83,0,0,1,2.08-3.16c.77-1,1.63-1.94,2.31-2.86-1.48-.37-3-.78-4.46-1.09C33.26,3.78,30.31,3,28.55,4c-.51.28-.93,1-1.41,1a10.59,10.59,0,0,1-1.56-.3,16.65,16.65,0,0,0-5.12.3c-1.54.31-4.79.85-5.2,2.27-.27.91.33,1.81.21,2.71a8.3,8.3,0,0,1-1.41,2.78,4.7,4.7,0,0,1-2,2c-.56-2.73,0-5.16.51-7.47.3-1.42.88-2.89.37-4.33-1.41-.19-2.6.92-4,1.47-2.62,1-5.56,2-5.94,5a7.21,7.21,0,0,0,.9,3.95A28.93,28.93,0,0,0,7.53,20.2c-.39.72-1.32.9-1.4,1.9a2.47,2.47,0,0,0,2.15.65c2.49,0,4.54-1.24,6.4-2.27,4-2.24,6.74-5.69,9.58-8.94a6.69,6.69,0,0,1,1.56-1.62c.64,2.9-.6,4.45-1.5,6.82-.34.91-1.4,3.77-.89,5.13s5.47,1.55,6.76.59c.65-.49.91-1.59,1.26-2.28.45-.88.83-1.63,1.19-2.41,0,3.2,2.44,4.15,5.06,4.83,5.55,1.46,11.15-1.14,14.19-2.92-.38,2.38.56,2.61,2.45,3,4.91,1,9.83-.15,13.82-1.1,3.65-.87,6.6-1.49,7.13-5.05-.58-.51-2-.44-3.05-.29-2.95.42-5.8,1.89-9.73,1.61-.71,0-2.27-.29-2.39-.73-.16-.67,1.07-1.14,2.09-1.32,2.95-.49,7.21,0,9.58-.89,1.15-.42,2.52-1.65,2.37-3-.08-.92-1.31-1.39-2.45-1.47-3.25-.2-5.57,1.66-9,1,.43-.54.49-1.41,1-1.84,2.5,0,4.92.45,7.28.3a8.85,8.85,0,0,0,6.69-3.37c.17-.19.58-.41.45-.73C72.51,5,64.73,2.72,57.69,3.57ZM56.35,7.65c.59.58,1.88.56,2.64,1-1,.23-2.33.23-3.28.55C55.94,8.67,56.14,8.14,56.35,7.65Zm-9.5,0c-.38,1.68-1.17,3.6-1.62,5.45,2.46,0,5-.45,7.55-.6a4.8,4.8,0,0,0,.69-1.65,3.18,3.18,0,0,1,.38,3c-3.84-.05-6.59,3-10.34,3-1.68,0-3.11-.93-2.32-2.77C42.34,11.5,45.13,9.7,46.85,7.65Z"/></g></g></g></g></svg>