<svg xmlns="http://www.w3.org/2000/svg" viewBox="0 0 120.26 32.98"><defs><style>.cls-1{fill:#ffd520;}.cls-2{fill-rule:evenodd;}</style></defs><title>nat-geo</title><g id="Layer_2" data-name="Layer 2"><g id="Layer_1-2" data-name="Layer 1"><g id="Natgeologo"><path id="Shape" class="cls-1" d="M0,33V0H24.66V33Zm21.09-3.32V3.32H3.55V29.66Z"/><g id="Group"><path id="Path" class="cls-2" d="M41,14.79H39.52c-2-2.63-4-5.26-6-8.23h0v8.23H31.82V3.31h1.53c2,2.63,4,5.23,5.95,8.19h0V3.31H41V14.79Z"/><path d="M45,10.26c.49-1.51,1-2.91,1.43-4.68h0c.49,1.77.93,3.17,1.38,4.68Zm.81-6.94L41.6,14.79h1.82l1.07-3.13H48.2l1,3.13h2.36L47.63,3.31H45.85Z"/><polygon class="cls-2" points="53.52 14.79 53.52 4.86 50.28 4.86 50.28 3.32 58.83 3.32 58.83 4.86 55.6 4.86 55.6 14.79 53.49 14.79 53.52 14.79"/><polygon class="cls-2" points="59.55 14.79 59.55 3.31 61.64 3.31 61.64 14.79 59.55 14.79"/><path d="M68.13,13.33c-2.19,0-3-2.26-3-4.46s.86-4.13,3-4.13,3,2,3,4.13S70.33,13.33,68.13,13.33Zm0,1.61c3.22,0,5.22-2.67,5.22-6.1,0-3.22-2.22-5.78-5.22-5.78s-5.21,2.56-5.21,5.78c0,3.48,2,6.15,5.21,6.15Z"/><path class="cls-2" d="M83.83,14.79H82.3c-2-2.63-4-5.26-6-8.23h0v8.23H74.61V3.31h1.52c2,2.63,4,5.23,6,8.19h0V3.31h1.72V14.79Z"/><path d="M87.85,10.26c.5-1.51,1-2.91,1.43-4.68h0c.49,1.77.93,3.17,1.38,4.68H87.85Zm.81-6.94L84.42,14.8h1.82l1.07-3.13H91l1,3.13h2.36L90.41,3.32H88.66Z"/><polygon class="cls-2" points="94.95 3.31 97.04 3.31 97.04 13.25 101.2 13.25 101.2 14.79 94.95 14.79 94.95 3.31"/></g><path class="cls-2" d="M39.74,24.4v4.74a10.65,10.65,0,0,1-3.5.71,5.7,5.7,0,0,1-5.9-6,5.75,5.75,0,0,1,6-5.87,5.54,5.54,0,0,1,3,.89l-.68,1.36a4.85,4.85,0,0,0-2.25-.61c-2.25,0-3.77,1.66-3.77,4.27s1.72,4.32,3.57,4.32a3.22,3.22,0,0,0,1.47-.28V24.4Z"/><polygon class="cls-2" points="47.28 19.71 43.77 19.71 43.77 22.85 47.22 22.85 47.22 24.4 43.77 24.4 43.77 28.11 47.91 28.11 47.91 29.65 41.66 29.65 41.66 18.16 47.28 18.16 47.28 19.7 47.28 19.71"/><path d="M53.78,28.2c-2.19,0-3-2.26-3-4.45s.86-4.14,3-4.14,3,2,3,4.14S56,28.2,53.78,28.2Zm0,1.61C57,29.81,59,27.14,59,23.72c0-3.22-2.22-5.78-5.22-5.78s-5.21,2.56-5.21,5.78c0,3.45,2,6.13,5.21,6.13v0Z"/><path class="cls-2" d="M69.13,24.4v4.74a10.7,10.7,0,0,1-3.5.71,5.71,5.71,0,0,1-5.91-6,5.75,5.75,0,0,1,6-5.87,5.6,5.6,0,0,1,3,.89L68,20.22a4.92,4.92,0,0,0-2.25-.61c-2.25,0-3.78,1.66-3.78,4.27s1.73,4.32,3.57,4.32A3.22,3.22,0,0,0,67,27.92V24.4Z"/><path d="M73.17,19.71h.93a1.76,1.76,0,0,1,2,1.49,2.16,2.16,0,0,1,0,.36,2,2,0,0,1-1.87,2.26l-.13,0-.87,0V19.7Zm5.34,9.93-2.44-4.75a3.83,3.83,0,0,0,2.13-3.41c0-2.23-1.46-3.32-3.81-3.32H71.11V29.64h2.11V25.32h1l2,4.32h2.36Z"/><path d="M82,25.11c.5-1.51,1-2.91,1.43-4.68h0c.49,1.77.93,3.16,1.38,4.68H82Zm.82-6.95L78.55,29.64h1.83l1.07-3.13h3.71l1,3.13h2.35L84.55,18.16H82.8Z"/><path d="M92.45,18.16H89.16V29.64h2.12V25.32h.94a3.91,3.91,0,0,0,4-3.73v-.11C96.23,19.25,94.78,18.16,92.45,18.16Zm-.3,5.67-.87.05V19.7h1a1.77,1.77,0,0,1,1.94,1.51,1.29,1.29,0,0,1,0,.34,2.05,2.05,0,0,1-1.86,2.28h-.15Z"/><polygon class="cls-2" points="106.01 29.64 103.89 29.64 103.89 24.12 99.52 24.12 99.52 29.64 97.42 29.64 97.42 18.16 99.52 18.16 99.52 22.57 103.89 22.57 103.89 18.19 106.01 18.19 106.01 29.64 106.01 29.64"/><polygon class="cls-2" points="108.02 29.64 108.02 18.16 110.12 18.16 110.12 29.64 108.02 29.64 108.02 29.64"/><path class="cls-2" d="M119.6,20.25a4.68,4.68,0,0,0-2.16-.64c-2.15,0-3.71,1.66-3.71,4.27s1.72,4.32,3.76,4.32a4.2,4.2,0,0,0,2.11-.57l.58,1.43a5.61,5.61,0,0,1-2.78.8,5.7,5.7,0,0,1-5.9-6A5.73,5.73,0,0,1,117.44,18a5.39,5.39,0,0,1,2.82.88Z"/></g></g></g></svg>