<svg xmlns="http://www.w3.org/2000/svg" viewBox="0 0 81.27 47.72"><defs><style>.cls-1{fill:#fe0000;}.cls-1,.cls-2,.cls-3,.cls-4{fill-rule:evenodd;}.cls-2{fill:#0380ba;}.cls-3{fill:#523a98;}.cls-4{fill:#008836;}</style></defs><title>univison</title><g id="Layer_2" data-name="Layer 2"><g id="Layer_1-2" data-name="Layer 1"><g id="Group"><path id="path2463" d="M72.09,42.87V38.18h.81l.8,0,0,.44a1.32,1.32,0,0,0,.06.44,2.28,2.28,0,0,0,.37-.27,4.41,4.41,0,0,1,.66-.41,5.76,5.76,0,0,1,5.38.67,3.91,3.91,0,0,1,.91,1.37c.17.43.17.45.17,3.76v3.32l-.76,0-.77,0,0-3.34c0-3.31,0-3.35-.18-3.71a3.07,3.07,0,0,0-3.31-1.45,2.64,2.64,0,0,0-2.14,1.42c-.31.62-.35,1.16-.35,4.25v2.83H72.09v-4.7ZM53.63,47.49c0-.05,0-2.15,0-4.68l0-4.6.81,0h.8v9.39h-.79c-.56,0-.8,0-.82-.08ZM39.89,42.87V38.18h.8l.8,0,0,4.68,0,4.68H39.89Zm-8,4.16c-.13-.3-.36-.79-.51-1.09L31,45.19c-.06-.11-.3-.62-.54-1.14S30,43,29.89,42.84c-.19-.38-1-2.08-1.22-2.57l-.56-1.2c-.2-.42-.37-.8-.37-.83a2.45,2.45,0,0,1,.84-.05l.83,0,.46,1L30.65,41c.18.39.51,1.14.74,1.66.39.9.56,1.3,1.17,2.76.15.36.29.62.32.59a3.17,3.17,0,0,0,.24-.51c.1-.25.29-.69.42-1s.31-.73.42-1c.34-.81,1.26-2.84,1.84-4.07l.57-1.21.76,0c.63,0,.76,0,.76.08a4,4,0,0,1-.28.64c-.45.87-1.66,3.25-1.85,3.64s-1.15,2.3-2.2,4.37l-.31.61-.57,0-.56,0L31.86,47Zm-7.69-4.16V38.18h1.65v9.39H24.17Zm-12.12,0,0-4.68.8,0h.81v.45a1.59,1.59,0,0,0,0,.46,3,3,0,0,0,.43-.29,4.86,4.86,0,0,1,.59-.38,6.06,6.06,0,0,1,4.52.1,3.93,3.93,0,0,1,1.55,1.39c.41.73.45,1,.45,4.53v3.13l-.77,0-.77,0,0-3.32c0-3.27,0-3.33-.19-3.69a2.47,2.47,0,0,0-1.89-1.39,3.11,3.11,0,0,0-3.53,1.31c-.34.7-.38,1.18-.38,4.27v2.86H12ZM63.51,38a7.66,7.66,0,0,0-2.84.66,3.94,3.94,0,0,0-1.36.93,3.69,3.69,0,0,0-.94,1.11,3.86,3.86,0,0,0-.52,2.06,4.44,4.44,0,0,0,.61,2.29,5.54,5.54,0,0,0,4.6,2.62,7.78,7.78,0,0,0,3.76-.58,4.89,4.89,0,0,0,2.74-3.2,5.65,5.65,0,0,0,0-2.28,5.13,5.13,0,0,0-3.77-3.35A8.14,8.14,0,0,0,63.51,38Zm.24.94a3.92,3.92,0,0,1,3.69,2,3.27,3.27,0,0,1,.44,1.83,4.13,4.13,0,0,1-.49,2,3.57,3.57,0,0,1-2.62,1.89,6.92,6.92,0,0,1-1,.09A3.8,3.8,0,0,1,59.69,43a3.64,3.64,0,0,1,.45-2.14A4,4,0,0,1,63.75,39ZM46.66,47.69a9.11,9.11,0,0,1-1-.16,5.29,5.29,0,0,1-1.59-.68c-.13-.12-.13-.13.21-.48a2,2,0,0,1,.39-.37,2.42,2.42,0,0,1,.48.23,3.85,3.85,0,0,0,2.09.52,2,2,0,0,0,1.62-.48,1.7,1.7,0,0,0,.45-1,1.86,1.86,0,0,0-.57-1.1,10.11,10.11,0,0,0-2.17-1.41c-1.52-.87-2.07-1.51-2.08-2.44s.81-1.8,2.26-2.16a5.11,5.11,0,0,1,3.86.67l.16.16-.36.32-.36.33-.49-.22A4,4,0,0,0,47.92,39c-1.33,0-2.15.91-1.62,1.8a6.88,6.88,0,0,0,1.92,1.42c1.69,1,2.35,1.62,2.62,2.45a1.86,1.86,0,0,1-.59,2.09,4.71,4.71,0,0,1-3.59,1Zm-42.8,0c-2.06-.16-3.28-1-3.73-2.48C0,44.84,0,44.45,0,41.5V38.21l.8,0h.8l0,3.27c0,3.45,0,3.57.36,4.15a2.44,2.44,0,0,0,1.13,1,2.86,2.86,0,0,0,1.49.19,2.84,2.84,0,0,0,1.46-.18,2.4,2.4,0,0,0,1.09-.85c.41-.6.4-.51.44-4.15l0-3.36h1.5l0,3.16c0,1.9,0,3.31-.05,3.52a3.94,3.94,0,0,1-.36.89c-.76,1.41-2.53,2.1-4.89,1.91Z"/><path id="path2461" class="cls-1" d="M38.35,33.07a19.5,19.5,0,0,1-7.13-2.28A16.74,16.74,0,0,1,23.3,21a16,16,0,0,1-.53-2.69l-.05-.54H31l8.3,0v7.53c0,4.13,0,7.59,0,7.67s-.08.14-.13.13l-.82-.09Z"/><path id="path2459" class="cls-2" d="M42,25.49l0-7.68h8.25c4.54,0,8.28,0,8.31,0a16,16,0,0,1-.41,2.78s-.13.36-.24.73A16.29,16.29,0,0,1,57,23.55c0,.09-.19.35-.31.59a14.59,14.59,0,0,1-1.51,2.3,18.58,18.58,0,0,1-3.49,3.3,4,4,0,0,0-.36.27l-.38.22a4.35,4.35,0,0,0-.43.27,10.15,10.15,0,0,1-1.49.8l-.46.24a1.79,1.79,0,0,1-.32.14c-.28.09-.77.28-1.13.44-.13.05-.55.18-.92.28l-.89.25a10.37,10.37,0,0,1-1,.2l-1.2.2-.76.09-.37,0V25.49Z"/><path id="path2457" class="cls-3" d="M22.72,7.68V0l.83,0a18.51,18.51,0,0,1,5.23,1.07,16.16,16.16,0,0,1,9.68,9.47,14,14,0,0,1,.82,3.95l0,.84H22.72V7.68Z"/><path id="path2453" class="cls-4" d="M42,7.7V0h8l8.21,0a1.19,1.19,0,0,1,.3,0c.07,0,.09,1.62.09,7.69v7.66H42V7.7Z"/></g></g></g></svg>