<svg xmlns="http://www.w3.org/2000/svg" viewBox="0 0 116 20"><defs><style>.cls-1{fill:#55b1e3;}.cls-1,.cls-2{fill-rule:evenodd;}.cls-2{fill:#070807;}</style></defs><title>insider-inc</title><g id="Layer_2" data-name="Layer 2"><g id="Layer_1-2" data-name="Layer 1"><path id="Fill-1" class="cls-1" d="M82.62,19.68h1.46V1.22H82.62ZM98.1,8.88a3.73,3.73,0,0,0-2.19-2.44,5.16,5.16,0,0,0-5.73,1.08,7.66,7.66,0,0,0-.78.87V7.31c0-.34,0-.68,0-1a14.07,14.07,0,0,0-1.47,0c-.09,1.65,0,13,0,13.41.47,0,.94,0,1.43-.05V10.37c.08-.17.14-.33.22-.47a4.85,4.85,0,0,1,1.72-1.85,4.13,4.13,0,0,1,3.27-.48A2.78,2.78,0,0,1,96.4,8.93,4.16,4.16,0,0,1,96.89,11c0,2.73,0,5.47,0,8.2a.83.83,0,0,0,0,.49H98.4V10.75a5.59,5.59,0,0,0-.3-1.87Zm17.75,8.7a1.69,1.69,0,0,0-2.95-.48,1.79,1.79,0,0,0-.31,1.15,1.48,1.48,0,0,0,.88,1.37,1.69,1.69,0,0,0,2.33-.79c.07-.14,0-.33.2-.42v-.5c-.19,0-.12-.23-.15-.33Zm-5.15,1.16a4.79,4.79,0,0,1-2.18,1.06,2,2,0,0,1-.73.1c-.05,0-.08.05-.09.1h-1.3c0-.07-.07-.09-.15-.1A5.73,5.73,0,0,1,103,18.43,6.61,6.61,0,0,1,101,15.18a6,6,0,0,1-.24-1.64,12.43,12.43,0,0,1,.1-2.11,7.27,7.27,0,0,1,.41-1.45,6,6,0,0,1,3.14-3.42,5.24,5.24,0,0,1,1.83-.5,5.14,5.14,0,0,1,.88-.08,6.44,6.44,0,0,1,2.9.77,2.83,2.83,0,0,0,.61.41V8.65a.64.64,0,0,1-.38-.17,4.07,4.07,0,0,0-2-.94,4.82,4.82,0,0,0-1.7-.11,6.07,6.07,0,0,0-1.67.5,4.52,4.52,0,0,0-2.15,2.46,4.39,4.39,0,0,0-.41,2c0,.19-.12.33-.1.52a8,8,0,0,0,.71,3.16,4.68,4.68,0,0,0,3.17,2.44c.44-.07.86.12,1.31,0a7.71,7.71,0,0,0,1.25-.19,5.18,5.18,0,0,0,1.47-.78,1,1,0,0,1,.46-.25c0,.48,0,1,0,1.43Z"/><path id="Fill-3" class="cls-2" d="M37.34,2.39a2.27,2.27,0,0,1-2.22,2.26,2.23,2.23,0,0,1-2.3-2.24A2.2,2.2,0,0,1,35.09.18a2.23,2.23,0,0,1,2.25,2.21ZM36.93,6.2c.09.39.13,12,0,13.43a26.9,26.9,0,0,1-3.76,0V6.24a28.67,28.67,0,0,1,3.72,0ZM18.49,9.07a5.83,5.83,0,0,1,.23,1.71v8.75s0,.07,0,.1a28.19,28.19,0,0,1-3.73.05c-.11-.13-.06-.29-.06-.43V11.94a4.28,4.28,0,0,0-.12-1.23,1.89,1.89,0,0,0-1.7-1.37,3,3,0,0,0-1.23.11,2.4,2.4,0,0,0-1.54,1.63,1.62,1.62,0,0,0,0,.49v8.11H6.57c-.09-.37-.13-12.18,0-13.44a31.73,31.73,0,0,1,3.76,0V7.39a4.93,4.93,0,0,1,1.28-1A5.37,5.37,0,0,1,14.85,6a4.57,4.57,0,0,1,2.21.92,4.22,4.22,0,0,1,1.43,2.2Zm57.78-3V9.88A5.62,5.62,0,0,0,75,9.49a3,3,0,0,0-2.19.42,2.07,2.07,0,0,0-1,1.79v8H68.07C68,19.27,68,6.8,68.06,6.2h3.75V7.4a3.9,3.9,0,0,1,4.46-1.31Zm-28,9.39a2.92,2.92,0,0,1-2.78,1.18A3,3,0,0,1,43,14.45a4.62,4.62,0,0,1,.28-3.69,3,3,0,0,1,4.47-.94,2.9,2.9,0,0,1,.72.86V15a.79.79,0,0,1-.16.45ZM52.3,0H48.4l0,.12c0,.16,0,.33,0,.49V6.68c0,.13.07.29-.1.42a5.77,5.77,0,0,0-.72-.53,5.35,5.35,0,0,0-4.92-.22,5.78,5.78,0,0,0-3.38,3.92,8.86,8.86,0,0,0-.31,3.9,7.51,7.51,0,0,0,1,3,5.5,5.5,0,0,0,3.57,2.64c.17,0,.4,0,.53.17h1.6a.12.12,0,0,1,.09-.1,4.2,4.2,0,0,0,2.42-1s.09-.14.22-.08v.87a32.88,32.88,0,0,0,3.86,0V.45c0-.12,0-.23,0-.35h0ZM0,19.7H3.9V1.19H0Zm31.15-4.44a3.77,3.77,0,0,1-.95,3.12A4.67,4.67,0,0,1,28,19.68a3.65,3.65,0,0,1-1.27.22c-.05,0-.08.05-.09.1H24.4c-.25-.19-.56-.13-.83-.19a7.51,7.51,0,0,1-2.77-1.15V15.24c.17,0,.23.08.31.14A7.76,7.76,0,0,0,25.25,17a3.48,3.48,0,0,0,1.47-.21,1,1,0,0,0,.68-1.11,1,1,0,0,0-.59-.75,5.48,5.48,0,0,0-1.11-.41,19.85,19.85,0,0,1-2.27-.7,4.73,4.73,0,0,1-1.74-1.12,3.47,3.47,0,0,1-.9-1.93,4,4,0,0,1,.26-2.22,3.91,3.91,0,0,1,2.11-2.08,7.42,7.42,0,0,1,4-.53,7.85,7.85,0,0,1,2.56.74c.23.11.46.25.68.38v3.47a9.8,9.8,0,0,0-1.87-1.15,6.46,6.46,0,0,0-2.11-.51,2.85,2.85,0,0,0-1.26.22.94.94,0,0,0-.66,1,.8.8,0,0,0,.38.66,3.69,3.69,0,0,0,1,.45c.85.27,1.72.47,2.55.8a5.09,5.09,0,0,1,1.75,1.1,3.4,3.4,0,0,1,.95,2.12ZM57.8,11.32A3.61,3.61,0,0,1,59,9.38a2.74,2.74,0,0,1,2.9-.05,2.63,2.63,0,0,1,.94,2Zm8.1-1.78a5.11,5.11,0,0,0-3.21-3.29A6.75,6.75,0,0,0,59.41,6a6,6,0,0,0-4.06,2.5A7.73,7.73,0,0,0,54,12.53a8.51,8.51,0,0,0,.19,2.41,6.38,6.38,0,0,0,1.37,2.81,6.53,6.53,0,0,0,4,2.15c.08,0,.17,0,.19.1h2.3c0-.08.07-.1.14-.1a5.74,5.74,0,0,0,2.38-.6,2.43,2.43,0,0,0,.8-.49v-3s0,0,0-.05l0,0-.18.08a6.44,6.44,0,0,1-4.36,1,3.43,3.43,0,0,1-2.44-1.26,3.28,3.28,0,0,1-.69-1.74h8.7c0-.52,0-1,0-1.47a9,9,0,0,0-.49-2.81Z"/></g></g></svg>