<?xml version="1.0" encoding="utf-8"?>
<!-- Generator: Adobe Illustrator 23.0.6, SVG Export Plug-In . SVG Version: 6.00 Build 0)  -->
<svg version="1.1" id="Layer_1" xmlns="http://www.w3.org/2000/svg" xmlns:xlink="http://www.w3.org/1999/xlink" x="0px" y="0px"
	 viewBox="0 0 2058.1 886.2" style="enable-background:new 0 0 2058.1 886.2;" xml:space="preserve">
<style type="text/css">
	.st0{fill:#002486;}
</style>
<g id="g6349" transform="matrix(3.630265,0,0,3.630265,0,4.4018555e-5)">
	<g id="g6351">
		<path id="path6353" class="st0" d="M68.9,66.7v31.7h67.1v66.3H68.9v78.6l-68.9,0V0.4C0,0.1,0.1,0,0.4,0h146l4.7,66.7H68.9
			L68.9,66.7z"/>
		<path id="path6355" class="st0" d="M347.7,37.4c22.8,23.3,34.3,51.5,34.3,84.4c0,33.2-11.4,61.5-34.3,84.8
			c-22.9,23.3-50.4,35-82.7,35c-32.5,0-60.2-11.7-83-35c-22.9-23.3-34.3-51.6-34.3-84.8c0-33,11.4-61.1,34.3-84.4
			c22.8-23.3,50.5-35,83-35C297.3,2.4,324.8,14.1,347.7,37.4L347.7,37.4z M245.2,170.6c0,5.4,2,10.1,6,14.1c4,4,8.8,6,14.5,6
			c5.7,0,10.4-2,14.3-6c3.9-4,5.8-8.7,5.8-14.1V72c0-5.7-1.9-10.5-5.8-14.5c-3.9-4-8.7-6-14.3-6c-5.7,0-10.5,2-14.5,6
			c-4,4-6,8.8-6,14.5L245.2,170.6L245.2,170.6z"/>
		<path id="path6357" class="st0" d="M489.4,244.1l-34.6-61.7l-33.5,61.7h-75.7l72.1-126.2L349.5,0h77.9l28.5,52.6L484.7,0h75.4
			l-66.7,117.2l73.6,126.9L489.4,244.1L489.4,244.1z"/>
	</g>
</g>
</svg>
