<svg xmlns="http://www.w3.org/2000/svg" viewBox="0 0 128 13.87"><defs><style>.cls-1{fill:#1d0f44;fill-rule:evenodd;}</style></defs><title>eurosport</title><g id="Layer_2" data-name="Layer 2"><g id="Layer_1-2" data-name="Layer 1"><path id="Combined-Shape" class="cls-1" d="M7.59,5.84,12.74.22V5.84h7.33L12.74,8.75v4.87L7.91,10.67.49,13.61,4.87,8.82,0,5.84ZM21.85,3H14V.2h7.88a.45.45,0,0,1,.46.43V2.52A.45.45,0,0,1,21.85,3Zm0,10.69H14V10.89h7.88a.45.45,0,0,1,.46.43v1.89A.45.45,0,0,1,21.85,13.64ZM127.54.2a.45.45,0,0,1,.46.43V2.52a.45.45,0,0,1-.46.44H124.1V13.22a.45.45,0,0,1-.46.43h-2a.45.45,0,0,1-.48-.43V3H117.7a.47.47,0,0,1-.48-.44V.63A.47.47,0,0,1,117.7.2Zm-42,5.74a1.76,1.76,0,0,0,.15-.86,2.53,2.53,0,0,0-.15-.87,2,2,0,0,0-.43-.66,2.27,2.27,0,0,0-.67-.43A1.93,1.93,0,0,0,83.56,3h-3V7.22h2.27a4.48,4.48,0,0,0,1.58-.17,1.87,1.87,0,0,0,.66-.42A2.08,2.08,0,0,0,85.53,5.94Zm2.8-2.73a5.22,5.22,0,0,1,.34,1.84,5.12,5.12,0,0,1-.36,2,4.46,4.46,0,0,1-1,1.54,5.28,5.28,0,0,1-1.64,1,6,6,0,0,1-2.17.39H80.59v3.22a.44.44,0,0,1-.46.45h-2a.47.47,0,0,1-.48-.45V.61a.47.47,0,0,1,.48-.43h5.35a5.93,5.93,0,0,1,2.19.4,4.94,4.94,0,0,1,1.64,1.06A4.36,4.36,0,0,1,88.33,3.21ZM68.2,4.05a.83.83,0,0,0,.19.6,1.55,1.55,0,0,0,.52.42,4.65,4.65,0,0,0,.89.29c.36.08.76.14,1.12.2.69.09,1.36.23,2,.37a5.6,5.6,0,0,1,1.77.7A3.51,3.51,0,0,1,76,7.89a3.51,3.51,0,0,1,.4,2,3.54,3.54,0,0,1-.63,2,4.2,4.2,0,0,1-1.41,1.24,5.13,5.13,0,0,1-1.81.64,9.25,9.25,0,0,1-2.09.13,7.68,7.68,0,0,1-5.27-2.49.38.38,0,0,1,0-.58l1.52-1.43a.36.36,0,0,1,.59.07,4.68,4.68,0,0,0,3.24,1.74,4.76,4.76,0,0,0,1-.05,3.68,3.68,0,0,0,.91-.23,1.53,1.53,0,0,0,.62-.44,1.27,1.27,0,0,0,.26-.74A1,1,0,0,0,73.14,9a2,2,0,0,0-.62-.49,3.59,3.59,0,0,0-1-.29q-.6-.12-1.17-.18a13.9,13.9,0,0,1-1.86-.36A6.24,6.24,0,0,1,66.84,7a3.42,3.42,0,0,1-1.19-1.2A3.1,3.1,0,0,1,65.24,4a3.8,3.8,0,0,1,.56-1.86A3.94,3.94,0,0,1,67.12.88a5.36,5.36,0,0,1,1.79-.7,7.7,7.7,0,0,1,3.87.16,6.1,6.1,0,0,1,3,2.1.4.4,0,0,1,0,.55c-.2.2-1.42,1.33-1.42,1.33a.43.43,0,0,1-.69,0,3.6,3.6,0,0,0-2.83-1.55C69.6,2.63,68.25,2.89,68.2,4.05ZM60.85,8.8A5,5,0,0,0,61.19,7a4.56,4.56,0,0,0-.34-1.83,4.06,4.06,0,0,0-.92-1.32A4.21,4.21,0,0,0,58.58,3a4.94,4.94,0,0,0-1.68-.28A4.87,4.87,0,0,0,55.21,3a3.71,3.71,0,0,0-1.35.79,4,4,0,0,0-.93,1.31A4.54,4.54,0,0,0,52.59,7a4.66,4.66,0,0,0,.34,1.85,3.8,3.8,0,0,0,.93,1.3,3.68,3.68,0,0,0,1.33.78,5.21,5.21,0,0,0,3.37,0,4.16,4.16,0,0,0,1.37-.79A4,4,0,0,0,60.85,8.8Zm1.17-7A6.42,6.42,0,0,1,63.63,4,7,7,0,0,1,64.22,7a7,7,0,0,1-.54,2.79A6.64,6.64,0,0,1,62.17,12a7,7,0,0,1-2.34,1.43,8.75,8.75,0,0,1-3,.49,8.56,8.56,0,0,1-2.8-.46A7.08,7.08,0,0,1,51.73,12a6.33,6.33,0,0,1-1.59-2.18,6.88,6.88,0,0,1-.6-2.93A6.87,6.87,0,0,1,50.14,4a6.2,6.2,0,0,1,1.61-2.18A6.89,6.89,0,0,1,54.1.46a8.69,8.69,0,0,1,5.58,0A6.91,6.91,0,0,1,62,1.83ZM101,8.8A4.63,4.63,0,0,0,101.31,7,4.56,4.56,0,0,0,101,5.14,4.24,4.24,0,0,0,100,3.82,4.11,4.11,0,0,0,98.69,3,4.84,4.84,0,0,0,97,2.75a5,5,0,0,0-1.7.28A3.88,3.88,0,0,0,94,3.82a4,4,0,0,0-.92,1.31A4.54,4.54,0,0,0,92.7,7a4.66,4.66,0,0,0,.35,1.85A3.72,3.72,0,0,0,95.3,10.9a5.24,5.24,0,0,0,3.38,0,4,4,0,0,0,1.36-.79A4.2,4.2,0,0,0,101,8.8Zm1.18-7A6.55,6.55,0,0,1,103.76,4,6.86,6.86,0,0,1,104.35,7a7,7,0,0,1-.54,2.79A6.64,6.64,0,0,1,102.3,12,6.82,6.82,0,0,1,100,13.38a8.75,8.75,0,0,1-3,.49,8.56,8.56,0,0,1-2.8-.46A6.94,6.94,0,0,1,91.87,12a6.23,6.23,0,0,1-1.6-2.18,6.88,6.88,0,0,1-.59-2.93A6.86,6.86,0,0,1,90.27,4a6.32,6.32,0,0,1,1.61-2.18A7,7,0,0,1,94.24.46a8.66,8.66,0,0,1,5.57,0A6.91,6.91,0,0,1,102.15,1.83ZM34.8.2a.47.47,0,0,1,.48.43V9a4.69,4.69,0,0,1-.46,2.06,4.36,4.36,0,0,1-1.24,1.52,5.2,5.2,0,0,1-1.81.94,7.64,7.64,0,0,1-2.17.31,7.78,7.78,0,0,1-2.19-.31,5.33,5.33,0,0,1-1.82-.94,4.5,4.5,0,0,1-1.25-1.52A4.31,4.31,0,0,1,23.88,9V.63A.44.44,0,0,1,24.34.2h2a.45.45,0,0,1,.46.43V9a2,2,0,0,0,.2.92,1.87,1.87,0,0,0,.52.65,2.58,2.58,0,0,0,.83.41,5,5,0,0,0,1.25.14,4.86,4.86,0,0,0,1.22-.14,2.38,2.38,0,0,0,.79-.41,1.74,1.74,0,0,0,.51-.65A2.32,2.32,0,0,0,32.32,9V.63A.45.45,0,0,1,32.78.2ZM49,12.92c.35.4.1.72-.32.7H46.12a.49.49,0,0,1-.38-.18L41.07,7.69a.29.29,0,0,1,.25-.49h1.25A4.44,4.44,0,0,0,44.15,7a1.94,1.94,0,0,0,.66-.41,2.08,2.08,0,0,0,.44-.69,2,2,0,0,0,.16-.86,2.39,2.39,0,0,0-.14-.86,1.89,1.89,0,0,0-.43-.66,1.92,1.92,0,0,0-.68-.45,2.25,2.25,0,0,0-.87-.17h-3V13.19a.45.45,0,0,1-.46.43h-2a.45.45,0,0,1-.46-.43V.61a.46.46,0,0,1,.46-.43h5.35a5.81,5.81,0,0,1,2.19.4A4.83,4.83,0,0,1,47,1.64a4.36,4.36,0,0,1,1,1.57,5,5,0,0,1,.34,1.86,4.19,4.19,0,0,1-2.65,4Zm68.37,0c.35.4.1.72-.31.7h-2.58a.48.48,0,0,1-.38-.18l-4.67-5.75a.29.29,0,0,1,.24-.49H111A4.44,4.44,0,0,0,112.53,7a1.76,1.76,0,0,0,.66-.41,2,2,0,0,0,.45-.69,2.2,2.2,0,0,0,.16-.86,2.39,2.39,0,0,0-.15-.86,1.89,1.89,0,0,0-.43-.66,2,2,0,0,0-.67-.45,2.25,2.25,0,0,0-.87-.17h-3V13.19a.45.45,0,0,1-.46.43h-2a.44.44,0,0,1-.46-.43V.61a.45.45,0,0,1,.46-.43h5.33a5.81,5.81,0,0,1,2.19.4,4.83,4.83,0,0,1,1.66,1.06,4.36,4.36,0,0,1,1,1.57,5,5,0,0,1,.34,1.86,4.19,4.19,0,0,1-2.65,4Z"/></g></g></svg>