<svg xmlns="http://www.w3.org/2000/svg" viewBox="0 0 127.92 25.57"><defs><style>.cls-1{fill:#08d7d7;}</style></defs><title>fandom</title><g id="Layer_2" data-name="Layer 2"><g id="Layer_1-2" data-name="Layer 1"><g id="Shape-2"><path id="Shape" d="M49.46,15l2-4.95a.36.36,0,0,1,.67,0l2,4.95H49.46M54,5.87a1,1,0,0,0-.92-.59H50.51a1,1,0,0,0-.92.59L44.05,19.52a.6.6,0,0,0,.07.58.71.71,0,0,0,.55.26h2.16a.67.67,0,0,0,.62-.4L48,18.55a.65.65,0,0,1,.62-.41H55a.67.67,0,0,1,.62.41L56.18,20a.66.66,0,0,0,.62.4H59a.69.69,0,0,0,.55-.27.58.58,0,0,0,.07-.57L54,5.87h0m73.19-.59H125.1a1.46,1.46,0,0,0-1.31.77l-4.22,8.24-4.22-8.24A1.46,1.46,0,0,0,114,5.28h-2.13a.68.68,0,0,0-.7.65V19.71a.67.67,0,0,0,.7.65h2a.71.71,0,0,0,.5-.19.61.61,0,0,0,.2-.46V12.57L118.52,20a.71.71,0,0,0,.63.36H120a.71.71,0,0,0,.63-.36l3.87-7.43v7.14a.67.67,0,0,0,.7.65h2a.67.67,0,0,0,.69-.65V5.93a.67.67,0,0,0-.69-.65h0M43.5,11.78H36.74V8.38h8.55A.7.7,0,0,0,45.94,8l.69-1.82a.6.6,0,0,0-.08-.59A.71.71,0,0,0,46,5.28H34.1a.67.67,0,0,0-.69.64v13.8a.66.66,0,0,0,.69.64h1.95a.66.66,0,0,0,.69-.64V14.88H42.8a.69.69,0,0,0,.65-.43l.69-1.82a.58.58,0,0,0-.08-.58.69.69,0,0,0-.56-.28h0M84,17.39H81.18V8.26H84c3,0,5,1.85,5,4.56s-2,4.57-5,4.57m-.1-12.11H78.34a.67.67,0,0,0-.69.64v13.8a.66.66,0,0,0,.69.64h5.57c5,0,8.55-3.27,8.55-7.49v-.09c0-4.22-3.49-7.5-8.54-7.5h0m-9.35,0H72.5a.67.67,0,0,0-.69.64v9.12L65,5.68a1,1,0,0,0-.8-.4h-2.6a.67.67,0,0,0-.68.64v13.8a.66.66,0,0,0,.69.64h2.06a.66.66,0,0,0,.69-.64v-9L71.06,20a1,1,0,0,0,.8.39h2.71a.65.65,0,0,0,.68-.64V5.94a.61.61,0,0,0-.2-.45.71.71,0,0,0-.48-.19h0m31.87,7.6a4.75,4.75,0,0,1-9.48,0v-.16a4.75,4.75,0,0,1,9.48,0v.16h0m-4.74-7.7a7.82,7.82,0,0,0-8.07,7.54v.16a8.09,8.09,0,0,0,16.14,0v-.17a7.82,7.82,0,0,0-8.07-7.54h0"/><path class="cls-1" d="M12.38,18.66a1,1,0,0,1-.32.75l-1,.78-9-7.79V9.34L12,17.91a1.1,1.1,0,0,1,.41.75ZM26,9.56V12.4l-11.14,10a.84.84,0,0,1-.6.24.92.92,0,0,1-.63-.24l-1-.85L26,9.56Zm-8.49,5.06-3.09,2.72L4.66,8.72a2.13,2.13,0,0,1,0-3.26L7.75,2.74l9.78,8.62a2.12,2.12,0,0,1,0,3.26ZM15.71,7.11l3.22-2.84a2.89,2.89,0,0,1,3.7,0L26,7.2l-5.07,4.46L19,10,15.71,7.11Zm12.37-.45L20.8.14,20.65,0,20.5.13,14.15,5.79,8.47.76h0L7.74.22,7.6.11,7.46.23.06,6.65,0,6.7v6.47l.06.06L13.93,25.44l.15.13.15-.13L28.08,13.23l.06-.06V6.71l-.06,0Z"/></g></g></g></svg>