<svg xmlns="http://www.w3.org/2000/svg" viewBox="0 0 71 38"><defs><style>.cls-1{fill:#221e1f;fill-rule:evenodd;}</style></defs><title>sky</title><g id="Layer_2" data-name="Layer 2"><g id="Layer_1-2" data-name="Layer 1"><g id="Mask"><path class="cls-1" d="M31,27.25c0,2-.88,3.11-5.24,3.11a12.9,12.9,0,0,1-1.57-.09V4.07c0-2,.77-4.07,5.16-4.07A8.1,8.1,0,0,1,31,.15Zm-9.33-4c0,3.68-2.71,6.37-8.22,6.9A75.8,75.8,0,0,1,.84,29.85a5.3,5.3,0,0,1-.19-1.29c0-3.22,2-4,3.82-4s4.94.31,7.19.31c2.45,0,3.21-.74,3.21-1.44,0-.93-1-1.31-2.9-1.63l-5.28-.9C2.33,20.19,0,17.53,0,14.69c0-3.45,2.75-6.33,8.18-6.86A64,64,0,0,1,20,8.17a4.38,4.38,0,0,1,.16,1.23c0,3.23-1.91,3.92-3.79,3.92-1.37,0-3.59-.23-6.11-.23s-3.64.63-3.64,1.38,1,1.13,2.6,1.39l5.05.81c5.12.84,7.34,3.43,7.34,6.62Zm27.6,14.1a8.79,8.79,0,0,0,3.22.61c2.52,0,3.9-.8,4.93-2.82L71,8.39a7.82,7.82,0,0,0-2.83-.57,5.44,5.44,0,0,0-5.58,3.43l-4.4,9.18L49.55,8a14.08,14.08,0,0,0-2.9-.36,8.42,8.42,0,0,0-6.54,2.68l-8.38,8.12,6.73,9.38A6.25,6.25,0,0,0,44,30.42a11,11,0,0,0,3.9-.65L39.8,19l5.74-5.4L55,26.66Z"/></g></g></g></svg>